<?xml version="1.0" standalone="no"?>
<!DOCTYPE svg PUBLIC "-//W3C//DTD SVG 20010904//EN"
 "http://www.w3.org/TR/2001/REC-SVG-20010904/DTD/svg10.dtd">
<svg version="1.0" xmlns="http://www.w3.org/2000/svg"
 width="20.000000pt" height="20.000000pt" viewBox="0 0 20.000000 20.000000"
 preserveAspectRatio="xMidYMid meet">
<metadata>
Created by potrace 1.16, written by Peter Selinger 2001-2019
</metadata>
<g transform="translate(0.000000,20.000000) scale(0.025000,-0.025000)"
fill="#000000" stroke="none">
<path d="M376 742 c-4 -10 -19 -31 -36 -47 -28 -26 -34 -28 -110 -26 l-80 2 0
-76 c0 -52 -4 -81 -14 -90 -7 -8 -16 -11 -20 -8 -3 4 -6 -1 -6 -10 0 -9 -13
-26 -30 -39 -16 -12 -30 -26 -30 -31 0 -5 15 -26 32 -47 68 -77 68 -77 68
-150 l0 -70 73 0 74 0 52 -55 c29 -30 56 -55 59 -54 4 0 27 25 52 54 l45 54
73 1 72 0 0 74 0 75 50 42 c28 23 50 47 50 53 0 7 -22 34 -50 61 l-50 49 0 82
0 82 -78 3 c-77 4 -79 5 -123 46 -48 47 -65 52 -73 25z m4 -336 l0 -213 -44
-10 c-25 -5 -69 -10 -98 -9 l-53 1 -3 100 c-2 55 0 115 3 133 6 31 7 32 60 32
l55 0 0 55 c0 42 -3 55 -15 55 -11 0 -15 -12 -15 -45 l0 -45 -39 0 c-35 0 -40
3 -45 28 -5 23 -10 117 -7 132 1 3 46 4 101 2 l100 -3 0 -213z m248 -3 l-3
-228 -73 2 c-40 1 -86 4 -102 8 l-30 7 0 213 0 214 98 4 c53 1 100 4 105 5 4
1 6 -100 5 -225z"/>
</g>
</svg>
